<?xml version="1.0" encoding="utf-8"?>
<!-- Generator: Adobe Illustrator 26.0.2, SVG Export Plug-In . SVG Version: 6.00 Build 0)  -->
<svg version="1.1" id="Calque_1" xmlns="http://www.w3.org/2000/svg" xmlns:xlink="http://www.w3.org/1999/xlink" x="0px" y="0px"
	 viewBox="0 0 1920 1080" style="enable-background:new 0 0 1920 1080;" xml:space="preserve">
<style type="text/css">
	.st0{display:none;fill:#007B6F;}
	.st1{fill:#007B6F;}
	.st2{fill:#00A098;}
</style>
<g>
	<path class="st0" d="M1131.3,203.68c0,19.96,0,39.92,0,59.87c-140.92,0-281.84,0-422.77,0V-6.93h422.77c0,69.41,0,138.84,0,208.27
		c-0.04-0.13-0.11-0.26-0.12-0.39c-0.29-3.54-2.21-4.5-4.88-4.48c-8.02,0.05-16.04,0-24.05,0c-4.74,0-9.49-0.01-14.23,0.02
		c-2.49,0.02-4.66,2.02-5.07,4.79c-0.42,2.82,0.2,5.55,0.64,8.3c0.27,1.67,1.15,2.67,2.55,3.01c1,0.25,2.05,0.22,3.08,0.33
		c1.05,0.11,2.13,0.12,3.15,0.4c0.82,0.23,1.33,1.14,1.15,2.07c-0.13,0.67-0.27,1.34-0.43,2c-1.82,7.15-5.88,12.47-11.06,16.79
		c-6.08,5.07-12.95,8.17-20.28,10.04c-6.42,1.64-12.91,2.26-19.47,1.33c-6.68-0.94-12.94-3.49-18.93-6.8
		c-10.39-5.73-18.45-14.52-25.12-25.03c-10.16-16.01-15.17-34.34-18.92-53.23c-0.7-3.53,0.69-5.71,3.81-6.43
		c2.03-0.47,4.06-1.28,6.21-0.73c0.3,0.08,0.63,0.02,0.94-0.01c1.78-0.13,3.56-0.25,5.34-0.41c1.62-0.15,3.26-0.25,4.86-0.55
		c3.68-0.69,7.34-1.56,11.03-2.23c2.29-0.42,4.66-0.36,6.91-0.94c9.15-2.35,18.32-4.63,27.37-7.38c12.68-3.86,24.87-9.15,36.1-16.97
		c7.67-5.34,14.51-11.79,20.03-19.86c8.02-11.72,12.61-24.99,13.57-39.78c0.64-9.85-0.89-19.3-4.47-28.32
		c-4.68-11.8-12.03-21.09-21.41-28.39c-11.17-8.69-23.58-13.54-37.09-14.87c-10.35-1.02-20.48,0.24-30.26,4.16
		c-3.92,1.57-7.65,3.73-11.47,5.63c-11.01,5.48-20,13.83-27.36,24.47c-5.8,8.39-10.23,17.68-13.79,27.5
		c-4.2,11.59-7.12,23.6-9.25,35.86c-1.35,7.75-2.73,15.51-2.82,23.45c-0.09,7.25-0.05,14.49,0.01,21.74
		c0.01,1.42-0.3,2.55-1.25,3.47c-1.4,1.37-3.07,1.26-4.69,0.95c-1.17-0.22-2.02-1.38-2.01-2.72c0.01-1.26,0.05-2.52,0.05-3.79
		c0-17.06,0.02-34.11-0.01-51.17c-0.01-5.2-0.23-10.39-0.23-15.59c0-4.35,0.12-8.7,0.29-13.05c0.28-7.14,0.81-14.27,0.26-21.42
		c-0.2-2.64-0.51-5.29-1.81-7.6c-0.81-1.45-1.96-2.07-3.52-1.87c-1.02,0.14-2.07,0.08-3.1,0.03c-2.85-0.15-5.71-0.43-8.56-0.48
		c-1.72-0.03-3.35,0.58-4.72,1.84c-0.96,0.87-1.6,1.88-1.6,3.4c-0.07,15.6-0.22,31.21-0.28,46.81c-0.08,21.14-0.11,42.28-0.17,63.42
		c0,1.77-1.28,3.18-2.86,3.2c-1.22,0.01-2.45,0.14-3.67,0.1c-1.44-0.05-2.9-0.07-4.3-0.38c-1.65-0.37-2.4-1.61-2.44-3.47
		c-0.6-28.59-0.13-57.18-0.04-85.77c0.03-7.86,0.04-15.71,0.03-23.57c-0.01-3.31-1.39-4.99-4.33-5.17c-1.66-0.1-3.32,0.07-4.99,0.11
		c-1.16,0.03-2.32,0.08-3.48,0.09c-2.53,0.02-5.08-0.19-7.59,0.1c-2.48,0.29-3.54,2.02-3.49,4.86c0.1,6.16,0.3,12.31,0.31,18.47
		c0.03,19.32,0,38.64-0.03,57.96c-0.02,11.14-0.07,22.28-0.1,33.41c0,1.16-0.27,2.16-1.16,2.83c-0.88,0.66-1.84,0.66-2.76,0.14
		c-1.03-0.59-1.31-1.68-1.37-2.91c-0.44-8.72-0.63-17.48-1.44-26.16c-0.83-8.95-2.08-17.88-3.5-26.74
		c-2.12-13.2-5.84-25.87-11.13-37.91c-3.71-8.46-8.14-16.43-13.74-23.46c-3.18-3.99-6.57-7.83-10.22-11.26
		c-4.93-4.63-10.55-8.15-16.44-11.05c-17.55-8.64-35.66-10.92-54.32-5.61c-13.09,3.73-24.52,10.89-33.86,22
		c-3.96,4.72-6.97,10.17-9.26,16.12c-4.66,12.15-5.86,24.8-4,37.81c2.71,18.96,10.85,34.33,24.36,46.09
		c7.9,6.88,16.58,12.2,25.79,16.47c9.66,4.48,19.66,7.74,29.79,10.52c4.08,1.12,8.11,2.67,12.25,3.33
		c7.99,1.28,16.04,2.07,24.06,3.04c5.41,0.65,10.79,1.48,16.02,3.22c0.95,0.32,1.88,0.7,2.8,1.04c-0.2,1.36-0.37,2.55-0.55,3.73
		c-2.03,13.14-5.18,25.9-10.19,38.03c-4.98,12.05-11.49,22.84-20.57,31.52c-6.4,6.12-13.64,10.56-21.58,13.53
		c-7.92,2.96-16.08,3.42-24.32,2.17c-10.12-1.53-19.41-5.37-27.37-12.77c-4.87-4.52-8.53-10.03-10.7-16.74
		c-0.39-1.22-0.2-1.73,0.94-1.93c1.14-0.19,2.32-0.14,3.47-0.27c1.39-0.16,2.8-0.26,4.15-0.62c1.44-0.39,2.47-1.82,2.59-3.48
		c0.08-1.13,0.2-2.26,0.3-3.39c0.25-2.62,0.05-5.14-1.71-7.11c-1.54-1.72-3.57-2.29-5.66-2.57c-3.87-0.53-7.72-0.03-11.57,0.32
		c-5.33,0.49-10.66,0.51-16-0.02c-2.71-0.27-5.46-0.45-8.17-0.25c-3.08,0.23-5.19,2.59-5.4,5.75c-0.14,2.1-0.13,4.27,0.15,6.34
		c0.42,3.1,1.75,5.15,5.15,4.99c0.5-0.02,1-0.05,1.51-0.07c1.76-0.1,3.51-0.26,5.27-0.28c2.65-0.03,4.47,1.3,5.57,4.12
		c4.67,12.02,11.89,21.74,21.42,29.2c11.72,9.16,24.81,14.16,39.02,15.23c13.9,1.04,27.11-2.21,39.64-8.99
		c10.69-5.78,19.94-13.71,27.75-23.76c3.86-4.96,7.33-10.24,10.09-16.05c1.89-3.98,3.45-8.16,5.24-12.21
		c2.25-5.11,4.2-10.37,5.48-15.88c2-8.61,3.83-17.27,5.64-25.93c0.37-1.79,1.1-3.18,2.29-4.35c1.75-1.72,3.71-1.53,4.82,0.74
		c0.68,1.39,1.17,3,1.34,4.57c0.2,1.83-0.09,3.73-0.07,5.59c0.06,5.73,0.22,11.46,0.23,17.19c0.02,20.42-0.01,40.84-0.03,61.25
		c-0.01,4.95-0.04,9.91-0.08,14.86c-0.02,2.22,0.12,2.47,1.99,3.23c0.19,0.07,0.37,0.14,0.57,0.2c4.53,1.34,9.14,1.45,13.75,0.93
		c1.85-0.21,3.71-0.71,5.49-1.35c1.59-0.58,1.84-1.22,1.64-2.99c-0.03-0.23-0.03-0.46-0.03-0.69c0-4.58-0.01-9.16,0-13.73
		c0.06-23.35,0.15-46.71,0.19-70.06c0.01-5.27-0.13-10.54-0.22-15.81c-0.04-2.49,0.76-3.68,2.92-4.14c0.74-0.16,1.5-0.23,2.25-0.21
		c1.73,0.03,3.45,0.14,5.18,0.21c1.7,0.06,3.1,1.53,3.26,3.44c0.04,0.45,0.06,0.91,0.07,1.37c0.09,8.42,0.26,16.84,0.26,25.26
		c-0.01,20.24-0.11,40.48-0.18,60.72c-0.01,4.1-0.13,8.2-0.06,12.3c0.02,1.01,0.4,2.22,0.98,2.98c1.57,2.05,3.8,2.91,6.11,3.08
		c2.6,0.19,5.22,0.11,7.82-0.03c1.46-0.08,2.94-0.35,4.34-0.82c2.51-0.84,3.91-2.84,4.08-5.82c0.05-0.92,0.02-1.84,0.02-2.76
		c0-19.57,0-39.14-0.02-58.71c-0.01-10.76-0.12-21.51-0.09-32.27c0-2.17,0.29-4.36,0.62-6.5c0.21-1.33,0.99-2.36,2.17-2.86
		c2.88-1.22,6.42,0.97,7.03,4.34c0.57,3.14,1.05,6.29,1.68,9.41c3.14,15.69,7.99,30.67,14.72,44.89c3.41,7.21,7.5,13.87,12.47,19.82
		c5.79,6.92,12.38,12.72,19.8,17.24c18.37,11.19,37.79,14.95,58.32,9.99c13.14-3.17,24.59-10.05,34.15-20.76
		c5.69-6.36,10.21-13.67,13.66-21.8c0.79-1.85,2.01-2.91,3.76-3.06c1.75-0.15,3.51-0.12,5.27-0.08c1.89,0.04,3.79,0.2,5.55-0.78
		c1.17-0.66,2.02-1.68,2.14-3.25c0.08-1.08,0.06-2.17,0.13-3.25C1131.09,205.42,1131.21,204.55,1131.3,203.68z"/>
	<path class="st1" d="M995.11,507.86c-3.13,0.72-4.51,2.9-3.81,6.43c6.18,44.34,37.23,96.01,82.45,83.72
		c13.48-3.5,28.47-12.24,31.74-28.68c0.25-1.28,0.02-1.9-1.11-2.21c-2.03-0.51-4.21-0.31-6.25-0.74c-1.4-0.34-2.28-1.34-2.55-3.01
		c-0.95-4.86-2.13-13.14,4.32-13.08c12.8-0.09,25.59,0.05,38.39-0.02c2.67-0.02,4.59,0.95,4.88,4.48c0.24,0.84,0.08,1.77,0.12,2.65
		c0,0.05,0,0.1-0.01,0.14c-0.26,1.9-0.29,3.82-0.37,5.74c0,0.04,0,0.07-0.01,0.11c-0.82,5.95-9.2,3.36-12.95,4.06
		c-1.75,0.15-2.97,1.21-3.76,3.06c-23.2,55.49-90.97,57.55-125.93,15.32c-16.11-19.89-24.5-48.05-28.87-74.12
		c-0.6-4.73-8-6.84-9.19-1.57c-0.01,0.06-0.02,0.12-0.02,0.17c-1.62,33.26,0.09,66.8-0.52,100.15c-0.39,8.35-10.98,6.6-16.21,6.66
		c-0.03,0-0.05,0-0.07,0c-3.06-0.16-6.9-2.13-7.06-6.06c0-33.22,0.61-66.45-0.09-99.66c-0.18-2.2-1.3-3.29-3.26-3.43
		c-2.94-0.22-10.59-2.02-10.35,4.14c0.54,33.35-0.14,66.71,0.04,100.06c0,0.03,0,0.07,0.01,0.1c0.22,1.89,0.01,2.55-1.63,3.14
		c-6.11,2.19-13.57,2.19-19.75,0.24c-0.03-0.01-0.06-0.02-0.08-0.03c-1.86-0.75-1.99-1.01-1.97-3.22
		c0.2-32.94,0.13-65.92-0.04-98.84c0-0.04,0-0.08-0.01-0.12c-0.46-3.58-1.92-5.97-6.16-5.25c-1.7,0.29-2.1,5-2.48,6.79
		c-3.2,14.09-5.23,26.19-10.94,39.37c-29.71,68.57-112.74,86.71-143.16,16.59c-1.1-2.83-2.92-4.15-5.57-4.12
		c-2.26,0.03-4.52,0.27-6.78,0.35c-3.41,0.16-4.73-1.89-5.15-4.99c-0.58-5.07-0.21-11.71,5.21-11.86c2.71-0.07,5.53,0.25,8.25,0.16
		c5.84-0.19,9.98-0.25,15.95-0.14c6.97,0.13,17.74-2.63,17.28,8.78c-0.1,2.52,0.72,6.91-2.04,7.63c-2.54,0.71-4.22,0.41-6.81,0.71
		c-1.14,0.19-1.33,0.71-0.94,1.93c9.2,26.4,39.97,35.22,62.4,27.33c32.9-11.64,56.24-67.83,53.76-88.87
		c-0.44-3.75-6.57,2.78-43.75-5.25c-38.47-8.31-85.63-26.18-92.2-76.42c-11.92-105.13,161.5-126.19,157.9,66.26
		c-0.08,4.39,5.45,4.31,5.29-0.05c-0.01-36.61,0.51-73.24-0.18-109.84c-0.05-2.84,1-4.82,3.49-4.86c3.87-0.06,7.39-0.18,11.07-0.19
		c3.99-0.01,9.29-1.35,9.32,5.06c0.14,36.45-0.72,72.89,0.01,109.34c0.04,1.86,0.79,3.1,2.44,3.47c2.61,0.54,5.32,0.37,7.97,0.28
		c1.68-0.01,2.85-1.24,2.86-3.14c0.06-36.76,0.18-73.53,0.45-110.29c0-3.39,3.18-5.19,6.32-5.24c3.88-0.06,7.8-0.02,11.66,0.45
		c4.59,0.57,3.58,5.95,3.84,9.45c0,0.02,0,0.04,0,0.06c-0.38,34.94-0.05,70.37-0.06,105.35c-0.01,1.71,1.57,2.02,3.07,2.32
		c2.81,0.83,6.24-0.51,6.06-4.4c-0.05-7.24-0.09-14.47-0.01-21.71c0-0.02,0-0.04,0-0.06c2.22-30.46,9.41-61.98,25.86-86.78
		c50.56-75.84,173.4-13.75,118.52,77.06c-0.02,0.03-0.03,0.05-0.05,0.07c-24.72,34.26-69.28,45.51-106.29,47.89 M1104.36,416.58
		c0-18.34-3.58-22.71-9.85-31.54c-0.02-0.03-0.05-0.07-0.08-0.1c-23.14-25.09-64.63-21.15-83.27,8.46
		c-14.45,23.37-19.69,52.18-21.86,80.11c-0.32,5.09-1.08,10.17-1.24,15.26c0,0.03,0,0.05,0,0.08c0.07,2.66,1.35,4.33,3.68,4.67
		c0.05,0.01,0.09,0.01,0.14,0.01c39.17,0.63,108.65-10.17,112.47-76.9C1104.35,416.63,1104.36,416.6,1104.36,416.58z M875.26,482.8
		c0-0.02,0-0.05,0-0.07c-0.8-10.84-1.23-22.45-3.14-33.4c-3.36-17.51-7.63-35.25-16.53-50.32c-0.02-0.03-0.03-0.06-0.04-0.09
		c-20.04-46.34-98.46-39.6-95.54,18.9c1.87,50.35,71.72,75.15,109.15,75.89c0.03,0,0.06,0,0.09,0c1.44-0.09,2.92-0.36,4.28-0.89
		c1.55-0.61,1.82-1.45,1.76-2.96C875.2,487.52,875.26,485.16,875.26,482.8z"/>
	<path class="st0" d="M1092.54,64.11c-0.1,10.5-3.29,19.79-8.7,28.19c-6.15,9.57-14.12,16.88-22.95,23.07
		c-14.86,10.42-31.02,17.23-48.03,21.63c-9.36,2.42-18.84,3.94-28.46,4.04c-1.47,0.02-2.96,0.2-4.41,0.01
		c-2.39-0.32-3.69-2.01-3.75-4.72c-0.03-1.44,0.15-2.89,0.27-4.33c0.31-3.66,0.7-7.31,0.97-10.97c0.85-11.43,2.27-22.75,4.58-33.94
		c2.39-11.57,5.56-22.83,10.53-33.35c2.07-4.39,4.09-8.91,6.75-12.83c9.38-13.81,21.73-22.24,37.17-24.44
		c12.81-1.82,24.97,0.6,36.29,7.76c3.6,2.28,6.97,4.95,9.85,8.27c1.41,1.63,2.46,3.73,3.45,5.75c3.09,6.3,5.26,12.98,6.03,20.16
		C1092.34,60.3,1092.41,62.21,1092.54,64.11z"/>
	<path class="st0" d="M863.44,130.26c0,2.37-0.07,4.74,0.02,7.11c0.06,1.51-0.21,2.35-1.76,2.96c-1.37,0.54-2.87,0.81-4.32,0.89
		c-4.42,0.25-8.78-0.46-13.13-1.24c-5.58-1-11.18-1.92-16.73-3.1c-9.63-2.04-18.85-5.62-27.92-9.71
		c-10.26-4.63-19.74-10.83-28.52-18.34c-6.87-5.88-12.87-12.71-17.23-21.2c-3.54-6.9-5.45-14.32-5.66-22.29
		c-0.16-6.13,0.13-12.19,1.91-18.06c3.03-9.97,8.78-17.41,16.7-22.82c7.34-5.02,15.38-7.56,23.89-8.31
		c10.94-0.96,21.42,0.98,31.31,6.46c5.28,2.93,10.03,6.74,14.02,11.64c3.02,3.71,5.29,8.04,7.73,12.24
		c4.69,8.03,8.33,16.77,10.8,25.97c2.16,8.06,4.46,16.07,5.76,24.39c1.23,7.84,2.07,15.74,2.53,23.68c0.19,3.25,0.33,6.5,0.49,9.75
		C863.36,130.26,863.4,130.26,863.44,130.26z"/>
</g>
<g>
	<g>
		<path class="st2" d="M728.35,661.43h27.11v4.74h-21.5v13.69h18.16v4.74h-18.16v15.89h22.17v4.74h-27.78V661.43z"/>
		<path class="st2" d="M769.75,661.43h5.54v39.06h21.63v4.74h-27.18V661.43z"/>
		<path class="st2" d="M807.2,700.49h10.88v-34.32H807.2v-4.74h27.38v4.74H823.7v34.32h10.88v4.74H807.2V700.49z"/>
		<path class="st2" d="M858.15,666.17h-14.49v-4.74h34.59v4.74h-14.49v39.06h-5.61V666.17z"/>
		<path class="st2" d="M888.59,661.43h27.11v4.74h-21.5v13.69h18.16v4.74H894.2v15.89h22.17v4.74h-27.78V661.43z"/>
		<path class="st2" d="M965.44,683.33c0-14.09,8.21-22.7,19.63-22.7c5.27,0,9.42,2.54,12.02,5.34l-3.21,3.54
			c-2.27-2.4-5.14-3.94-8.81-3.94c-8.35,0-13.82,6.74-13.82,17.63c0,11.02,5.48,17.9,13.82,17.9c4.01,0,7.08-1.74,9.82-4.81
			l3.21,3.41c-3.41,4.01-7.75,6.34-13.55,6.34C973.72,706.03,965.44,697.62,965.44,683.33z"/>
		<path class="st2" d="M1017.99,661.43h6.41l14.76,43.8h-6.01l-7.55-24.44c-1.54-4.88-3-9.68-4.34-14.76h-0.27
			c-1.4,5.07-2.8,9.88-4.34,14.76l-7.68,24.44h-5.74L1017.99,661.43z M1011.04,687.4h20.1v4.54h-20.1V687.4z"/>
		<path class="st2" d="M1047.83,661.43h13.69c8.88,0,15.36,3.21,15.36,12.35c0,8.75-6.48,12.95-15.36,12.95h-8.01v18.5h-5.68V661.43
			z M1060.72,682.19c6.81,0,10.55-2.8,10.55-8.41c0-5.74-3.74-7.81-10.55-7.81h-7.21v16.23H1060.72z M1064.79,682.26l13.35,22.97
			h-6.34l-11.42-20.03L1064.79,682.26z"/>
		<path class="st2" d="M1084.82,683.33c0-14.16,8.08-22.7,19.43-22.7c5.81,0,9.62,2.74,12.09,5.34l-3.21,3.54
			c-2.07-2.2-4.67-3.94-8.88-3.94c-8.21,0-13.55,6.74-13.55,17.63c0,11.02,4.87,17.9,13.42,17.9c3.07,0,5.94-0.94,7.55-2.54v-11.42
			h-8.68v-4.61h13.89v18.43c-2.74,2.8-7.41,5.08-13.09,5.08C1092.76,706.03,1084.82,697.62,1084.82,683.33z"/>
		<path class="st2" d="M1124.54,683.13c0-14.16,6.94-22.5,16.83-22.5c9.88,0,16.83,8.35,16.83,22.5c0,14.36-6.94,22.9-16.83,22.9
			C1131.49,706.03,1124.54,697.49,1124.54,683.13z M1152.39,683.13c0-11.02-4.41-17.56-11.02-17.56c-6.61,0-11.02,6.54-11.02,17.56
			c0,11.22,4.41,17.96,11.02,17.96C1147.98,701.09,1152.39,694.35,1152.39,683.13z"/>
	</g>
</g>
</svg>
