<?xml version="1.0" encoding="UTF-8"?>
<svg width="60px" height="18px" viewBox="0 0 60 18" version="1.1" xmlns="http://www.w3.org/2000/svg" xmlns:xlink="http://www.w3.org/1999/xlink">
    <title>Logo</title>
    <g id="Symbols" stroke="none" stroke-width="1" fill="none" fill-rule="evenodd">
        <g id="Header_2" transform="translate(-160.000000, -29.000000)">
            <g id="Logo" transform="translate(160.000000, 29.000000)">
                <polygon id="Fill-1" fill="#414258" points="0 0.000141176471 0 17.7883765 11.4114451 17.7883765 11.4114451 15.1709647 3.19630058 15.1709647 3.19630058 10.0377882 10.6623121 10.0377882 10.6623121 7.49661176 3.19630058 7.49661176 3.19630058 2.61755294 11.4114451 2.61755294 11.4114451 0.000141176471"></polygon>
                <g id="Group-10" transform="translate(13.872832, 4.376612)">
                    <path d="M0.161861272,13.4117647 L0.161861272,0.807529412 L3.00856647,0.807529412 L3.30821965,3.17082353 C3.75769942,2.35764706 4.36949133,1.70964706 5.14359538,1.22682353 C5.91804624,0.744 6.82949133,0.502588235 7.87793064,0.502588235 L7.87793064,3.93317647 L6.9789711,3.93317647 C6.28012717,3.93317647 5.65550289,4.04364706 5.10613873,4.26352941 C4.55677457,4.48376471 4.12810405,4.86494118 3.82012717,5.40705882 C3.51180347,5.94917647 3.35850867,6.70305882 3.35850867,7.66870588 L3.35850867,13.4117647 L0.161861272,13.4117647 Z" id="Fill-2" fill="#414258"></path>
                    <path d="M16.2944046,13.4117647 C15.1956763,13.4117647 14.2297803,13.2292941 13.3974104,12.8654118 C12.5650405,12.5011765 11.8991445,11.9971765 11.4000694,11.3534118 C10.9003006,10.7096471 10.6009942,9.96423529 10.5011098,9.11717647 L13.7223815,9.11717647 C13.8219191,9.60882353 14.0924393,10.0277647 14.5339422,10.3750588 C14.9744046,10.7223529 15.5452717,10.896 16.2441156,10.896 C16.9433064,10.896 17.4555607,10.7523529 17.7798382,10.4636471 C18.1048092,10.176 18.2667746,9.84564706 18.2667746,9.47294118 C18.2667746,8.93082353 18.033711,8.56235294 17.5679306,8.36752941 C17.1014566,8.17270588 16.4522081,7.98211765 15.620185,7.79576471 C15.0871214,7.67752941 14.5464277,7.53317647 13.9970636,7.36341176 C13.4476994,7.19470588 12.9437688,6.97835294 12.4863121,6.71541176 C12.0281618,6.45317647 11.6577572,6.11435294 11.3747514,5.69894118 C11.0917457,5.28423529 10.9505896,4.77176471 10.9505896,4.16188235 C10.9505896,3.04376471 11.3875838,2.10352941 12.2612254,1.34117647 C13.1355607,0.578823529 14.3629595,0.197647059 15.9444624,0.197647059 C17.4094335,0.197647059 18.5792601,0.544941176 19.4529017,1.23952941 C20.327237,1.93411765 20.8471214,2.89094118 21.0135954,4.11070588 L17.9924393,4.11070588 C17.8089711,3.17964706 17.1184509,2.71341176 15.9198382,2.71341176 C15.320185,2.71341176 14.8582197,2.832 14.5339422,3.06882353 C14.2089711,3.30635294 14.0470058,3.60282353 14.0470058,3.95858824 C14.0470058,4.33129412 14.2880462,4.62776471 14.7708208,4.84764706 C15.2535954,5.06823529 15.8948671,5.27188235 16.6935954,5.45788235 C17.5589133,5.66117647 18.3541734,5.886 19.0783353,6.13129412 C19.8024971,6.37694118 20.3809942,6.74117647 20.8138266,7.224 C21.246659,7.70682353 21.4630751,8.39717647 21.4630751,9.29505882 C21.4797225,10.0743529 21.2799538,10.7774118 20.8641156,11.4042353 C20.4479306,12.0310588 19.8482775,12.522 19.0658497,12.8777647 C18.2830751,13.2338824 17.3594913,13.4117647 16.2944046,13.4117647" id="Fill-4" fill="#414258"></path>
                    <path d="M30.4299538,10.5909882 C31.2619769,10.5909882 31.9861387,10.2733412 32.6024393,9.63804706 C33.2180462,9.00275294 33.5263699,8.05828235 33.5263699,6.80428235 C33.5263699,5.55134118 33.2180462,4.60651765 32.6024393,3.97122353 C31.9861387,3.33592941 31.2703006,3.01828235 30.454578,3.01828235 C29.6059075,3.01828235 28.877237,3.33592941 28.2696069,3.97122353 C27.6619769,4.60651765 27.3585087,5.55134118 27.3585087,6.80428235 C27.3585087,8.05828235 27.6619769,9.00275294 28.2696069,9.63804706 C28.877237,10.2733412 29.597237,10.5909882 30.4299538,10.5909882 M30.4299538,13.4116941 C29.231341,13.4116941 28.153422,13.1321647 27.1961965,12.5731059 C26.2386243,12.0140471 25.4811676,11.2389882 24.9238266,10.2479294 C24.3657919,9.25687059 24.0872948,8.10945882 24.0872948,6.80428235 C24.0872948,5.50016471 24.3699538,4.3524 24.9359653,3.36134118 C25.5019769,2.37028235 26.2635954,1.59522353 27.2211676,1.03616471 C28.1780462,0.477105882 29.2559653,0.197576471 30.454578,0.197576471 C31.6365434,0.197576471 32.7057919,0.477105882 33.6633642,1.03616471 C34.6205896,1.59522353 35.3780462,2.37028235 35.9360809,3.36134118 C36.493422,4.3524 36.7722659,5.50016471 36.7722659,6.80428235 C36.7722659,8.10945882 36.493422,9.25687059 35.9360809,10.2479294 C35.3780462,11.2389882 34.6164277,12.0140471 33.6508786,12.5731059 C32.6853295,13.1321647 31.6115723,13.4116941 30.4299538,13.4116941" id="Fill-6" fill="#414258"></path>
                    <polygon id="Fill-8" fill="#EC3F58" points="45.9422775 6.88235294 43.4930289 13.4117647 39.395341 13.4117647 41.8601965 7.05882353 41.8445896 7.05882353 39.395341 0.352941176 43.477422 0.352941176"></polygon>
                </g>
            </g>
        </g>
    </g>
</svg>